<?xml version="1.0" standalone="no"?>
<!DOCTYPE svg PUBLIC "-//W3C//DTD SVG 20010904//EN"
 "http://www.w3.org/TR/2001/REC-SVG-20010904/DTD/svg10.dtd">
<svg version="1.0" xmlns="http://www.w3.org/2000/svg"
 width="262.000000pt" height="262.000000pt" viewBox="0 0 262.000000 262.000000"
 preserveAspectRatio="xMidYMid meet">
<metadata>
Created by potrace 1.14, written by Peter Selinger 2001-2017
</metadata>
<g transform="translate(0.000000,262.000000) scale(0.100000,-0.100000)"
fill="#000000" stroke="none">
<path d="M365 2613 c-93 -21 -167 -63 -236 -133 -62 -63 -105 -142 -120 -224
-6 -34 -8 -394 -6 -983 3 -1003 -1 -934 56 -1043 31 -58 124 -150 181 -177
107 -51 52 -48 1070 -48 921 0 957 1 1005 19 152 59 260 180 294 327 7 29 10
374 8 984 l-2 940 -38 80 c-61 129 -177 224 -308 254 -43 10 -1862 14 -1904 4z"/>
</g>
</svg>
